HIERARCHY
ROOT Hips
{
 OFFSET 0.000000 0.000000 0.000000
 CHANNELS 6 Xposition Yposition Zposition Yrotation Xrotation Zrotation
 JOINT Chest
 {
  OFFSET 0.000000 9.585900 0.002600
  CHANNELS 3 Yrotation Xrotation Zrotation
  JOINT Chest2
  {
   OFFSET 0.000000 9.601200 -0.005300
   CHANNELS 3 Yrotation Xrotation Zrotation
   JOINT Chest3
   {
    OFFSET 0.000000 9.561800 0.000000
    CHANNELS 3 Yrotation Xrotation Zrotation
    JOINT Chest4
    {
     OFFSET 0.000000 9.552100 0.000000
     CHANNELS 3 Yrotation Xrotation Zrotation
     JOINT Neck
     {
      OFFSET 0.000000 14.453000 0.000000
      CHANNELS 3 Yrotation Xrotation Zrotation
      JOINT Head
      {
       OFFSET 0.000000 8.936500 -0.011300
       CHANNELS 3 Yrotation Xrotation Zrotation
       End Site
       {
        OFFSET 0.000000 17.073600 -0.006000
       }
      }
     }
     JOINT RightCollar
     {
      OFFSET -2.921100 9.558500 0.000000
      CHANNELS 3 Yrotation Xrotation Zrotation
      JOINT RightShoulder
      {
       OFFSET -13.519700 0.000000 0.000000
       CHANNELS 3 Yrotation Xrotation Zrotation
       JOINT RightElbow
       {
        OFFSET 0.000000 -29.696600 0.000000
        CHANNELS 3 Yrotation Xrotation Zrotation
        JOINT RightWrist
        {
         OFFSET 0.000000 -24.004700 0.000000
         CHANNELS 3 Yrotation Xrotation Zrotation
         End Site
         {
          OFFSET 0.000000 -17.728500 0.000000
         }
        }
       }
      }
     }
     JOINT LeftCollar
     {
      OFFSET 2.921100 9.558500 0.000000
      CHANNELS 3 Yrotation Xrotation Zrotation
      JOINT LeftShoulder
      {
       OFFSET 13.519700 0.000000 0.000000
       CHANNELS 3 Yrotation Xrotation Zrotation
       JOINT LeftElbow
       {
        OFFSET 0.000000 -29.696600 0.000000
        CHANNELS 3 Yrotation Xrotation Zrotation
        JOINT LeftWrist
        {
         OFFSET 0.000000 -24.004700 0.000000
         CHANNELS 3 Yrotation Xrotation Zrotation
         End Site
         {
          OFFSET 0.000000 -17.728500 0.000000
         }
        }
       }
      }
     }
    }
   }
  }
 }
 JOINT RightHip
 {
  OFFSET -7.771700 -0.012900 -0.001300
  CHANNELS 3 Yrotation Xrotation Zrotation
  JOINT RightKnee
  {
   OFFSET 0.000000 -40.869800 0.001200
   CHANNELS 3 Yrotation Xrotation Zrotation
   JOINT RightAnkle
   {
    OFFSET 0.000000 -39.717900 0.002100
    CHANNELS 3 Yrotation Xrotation Zrotation
    JOINT RightToe
    {
     OFFSET 0.000000 -4.965400 11.033500
     CHANNELS 3 Yrotation Xrotation Zrotation
     End Site
     {
      OFFSET 0.000000 -1.423100 5.872300
     }
    }
   }
  }
 }
 JOINT LeftHip
 {
  OFFSET 7.771700 -0.012900 -0.001300
  CHANNELS 3 Yrotation Xrotation Zrotation
  JOINT LeftKnee
  {
   OFFSET 0.000000 -40.869800 0.001200
   CHANNELS 3 Yrotation Xrotation Zrotation
   JOINT LeftAnkle
   {
    OFFSET 0.000000 -39.717900 0.002100
    CHANNELS 3 Yrotation Xrotation Zrotation
    JOINT LeftToe
    {
     OFFSET 0.000000 -4.965400 11.033500
     CHANNELS 3 Yrotation Xrotation Zrotation
     End Site
     {
      OFFSET 0.000000 -1.423100 5.872300
     }
    }
   }
  }
 }
}
MOTION
Frames: 5
Frame Time: 0.008333
-142.545381 51.927334 -58.833217 177.738787 -27.241186 0.094768 -4.356211 11.820001 -0.113035 -0.334132 0.887491 0.063569 -0.525381 1.533180 0.099504 -3.794605 10.757455 0.413219 -3.367571 16.776436 -1.177634 -3.286840 -8.054547 -0.476404 2.331257 14.373717 8.486348 4.357806 -13.185675 -49.576958 133.837980 -35.153137 175.639822 -0.802757 -2.618553 -20.486497 -2.392495 11.612953 -12.334816 -31.869241 -8.750830 49.590068 -126.838483 -41.768234 176.474876 13.375879 -1.802590 16.262087 -6.688501 -55.496888 1.083604 -58.771601 82.904411 -66.998427 -1.977446 -3.275326 8.101177 0.409745 -0.036918 -0.200844 8.099558 -53.380473 -6.740470 24.972070 85.332363 30.954231 -5.305385 -11.467755 0.454082 0.053291 0.286597 0.017683
-142.541755 51.914674 -58.846299 177.790728 -27.191994 0.104837 -4.376183 11.782129 -0.140645 -0.349121 0.880702 0.065602 -0.472433 1.554140 0.090967 -3.763254 10.763193 0.412877 -3.365801 16.827680 -1.181061 -3.284722 -7.999315 -0.480582 2.282155 14.416685 8.495635 4.205225 -13.069666 -49.388156 133.840942 -35.019552 175.677498 -0.827736 -2.645221 -20.337538 -2.337438 11.643279 -12.312999 -31.554204 -8.726607 49.501399 -126.833804 -41.616611 176.542301 13.395069 -1.808588 16.289402 -6.707075 -55.555669 1.051384 -59.214466 82.969207 -67.454509 -2.018946 -3.480133 8.169303 0.407082 -0.036397 -0.168340 8.114983 -53.436400 -6.802626 24.946931 85.354619 30.921593 -5.308572 -11.483247 0.465653 0.056182 0.295106 0.018705
-142.538131 51.902614 -58.860379 177.811382 -27.153683 0.123558 -4.367812 11.755825 -0.163834 -0.315063 0.894521 0.061324 -0.469200 1.554065 0.087927 -3.730328 10.766453 0.409669 -3.362062 16.874683 -1.183258 -3.280714 -7.948638 -0.483883 2.230377 14.454087 8.505855 4.053550 -12.964044 -49.208457 133.880856 -34.890446 175.689615 -0.861502 -2.672685 -20.195413 -2.285253 11.667711 -12.289687 -31.229633 -8.714991 49.416649 -126.851887 -41.466751 176.619124 13.405770 -1.837180 16.305121 -6.697609 -55.598830 1.019349 -59.666087 83.026006 -67.911924 -2.059988 -3.720446 8.230286 0.399414 -0.013000 -0.139109 8.136042 -53.480667 -6.841811 24.974104 85.377817 30.932005 -5.309879 -11.501772 0.477253 0.060789 0.299764 0.022353
-142.544764 51.897666 -58.888804 177.942425 -27.214031 0.149559 -4.441668 11.837933 -0.254385 -0.249703 0.923678 0.049751 -0.526225 1.523654 0.099449 -3.695632 10.766355 0.405077 -3.356398 16.917766 -1.184302 -3.274840 -7.902221 -0.486387 2.178139 14.486040 8.516105 3.899281 -12.867501 -49.039074 133.948784 -34.764215 175.683502 -0.899514 -2.694929 -20.068470 -2.237620 11.686139 -12.267657 -30.888535 -8.718663 49.337423 -126.895333 -41.319287 176.700697 13.399189 -1.877941 16.320042 -6.685231 -55.549938 0.863569 -60.599666 83.066788 -68.853954 -2.115150 -3.996448 8.279899 0.433066 -0.010542 -0.093857 8.124432 -53.415964 -6.959465 25.020220 85.395638 30.961598 -5.345940 -11.508729 0.486519 0.089569 0.295477 0.036732
-142.546714 51.887787 -58.907943 178.002664 -27.217254 0.170616 -4.445731 11.868740 -0.301064 -0.245268 0.921081 0.047067 -0.554551 1.508418 0.105678 -3.627496 10.774617 0.391204 -3.349198 16.958154 -1.184183 -3.267546 -7.858836 -0.487985 2.125019 14.516077 8.524197 3.741480 -12.780294 -48.879297 134.037857 -34.642737 175.663790 -0.935387 -2.708404 -19.955916 -2.195468 11.699117 -12.246871 -30.540993 -8.733910 49.263066 -126.942438 -41.176300 176.772079 13.380591 -1.922137 16.337565 -6.681228 -55.555234 0.796014 -61.411278 83.084232 -69.678810 -2.139654 -4.285970 8.339149 0.435592 0.012411 -0.067109 8.139405 -53.415816 -7.029002 25.094335 85.416164 31.019184 -5.366686 -11.517585 0.501217 0.098898 0.294133 0.042160
